.
 
http://www.scenetime.com    -   SceneTime [ We been having it ] !!!


How come you press harder on a remote control when you know the battery is dead? so you better seed to get speed ;)

        Seed back for speed


...................................NFO:.................................................SCR0N

   General
      Complete name : Fading of the Cries 2011-SCR0N
      Format : AVI
      Format/Info : Audio Video Interleave
      Format profile : OpenDML
      File size : 1.42 GiB
      Duration : 1h 29mn
      Overall bit rate : 2 275 Kbps
      Writing application : Lavf52.57.1
   Video #0
      ID : 0
      Format : MPEG-4 Visual
      Format profile : Simple@L1
      Format settings, BVOP : No
      Format settings, QPel : No
      Format settings, GMC : No warppoints
      Format settings, Matrix : Default (H.263)
      Codec ID : FMP4
      Duration : 1h 29mn
      Bit rate : 1 941 Kbps
      Width : 720 pixels
      Height : 400 pixels
      Display aspect ratio : 16:9
      Frame rate : 25.000 fps
      Color space : YUV
      Chroma subsampling : 4:2:0
      Bit depth : 8 bits
      Scan type : Progressive
      Compression mode : Lossy
      Bits/(Pixel*Frame) : 0.270
      Stream size : 1.21 GiB (85%)
      Writing library : Lavc52.62.0
   Audio #1
      ID : 1
      Format : MPEG Audio
      Format version : Version 1
      Format profile : Layer 3
      Mode : Joint stereo
      Mode extension : MS Stereo
      Codec ID : 55
      Codec ID/Hint : MP3
      Duration : 1h 29mn
      Bit rate mode : Constant
      Bit rate : 320 Kbps
      Channel(s) : 2 channels
      Sampling rate : 44.1 KHz
      Compression mode : Lossy
      Stream size : 64.2 MiB (4%)
      Alignment : Aligned on interleaves
      Interleave, duration : 83 ms (2.09 video frames)
      Writing library : LAME3.98.2

Thanks to all p2p groups.....